HIERARCHY
ROOT Hips
{
 OFFSET 0.000000 0.000000 0.000000
 CHANNELS 6 Xposition Yposition Zposition Yrotation Xrotation Zrotation
 JOINT Chest
 {
  OFFSET 0.000000 9.588913 -0.003946
  CHANNELS 3 Yrotation Xrotation Zrotation
  JOINT Chest2
  {
   OFFSET 0.000000 9.541882 0.008053
   CHANNELS 3 Yrotation Xrotation Zrotation
   JOINT Chest3
   {
    OFFSET 0.000000 9.501360 0.000000
    CHANNELS 3 Yrotation Xrotation Zrotation
    JOINT Chest4
    {
     OFFSET 0.000000 9.491660 0.000000
     CHANNELS 3 Yrotation Xrotation Zrotation
     JOINT Neck
     {
      OFFSET 0.000000 14.331917 0.000000
      CHANNELS 3 Yrotation Xrotation Zrotation
      JOINT Head
      {
       OFFSET 0.000000 8.884799 0.017034
       CHANNELS 3 Yrotation Xrotation Zrotation
       End Site
       {
        OFFSET 0.000000 16.896195 0.008993
       }
      }
     }
     JOINT RightCollar
     {
      OFFSET -2.923010 9.499495 0.000000
      CHANNELS 3 Yrotation Xrotation Zrotation
      JOINT RightShoulder
      {
       OFFSET -13.795216 0.000000 0.000000
       CHANNELS 3 Yrotation Xrotation Zrotation
       JOINT RightElbow
       {
        OFFSET -30.272209 0.000000 0.000000
        CHANNELS 3 Yrotation Xrotation Zrotation
        JOINT RightWrist
        {
         OFFSET -24.478199 0.000000 0.000000
         CHANNELS 3 Yrotation Xrotation Zrotation
         End Site
         {
          OFFSET -18.090752 0.000000 0.000000
         }
        }
       }
      }
     }
     JOINT LeftCollar
     {
      OFFSET 2.923010 9.499495 0.000000
      CHANNELS 3 Yrotation Xrotation Zrotation
      JOINT LeftShoulder
      {
       OFFSET 13.795216 0.000000 0.000000
       CHANNELS 3 Yrotation Xrotation Zrotation
       JOINT LeftElbow
       {
        OFFSET 30.272209 0.000000 0.000000
        CHANNELS 3 Yrotation Xrotation Zrotation
        JOINT LeftWrist
        {
         OFFSET 24.478199 0.000000 0.000000
         CHANNELS 3 Yrotation Xrotation Zrotation
         End Site
         {
          OFFSET 18.090752 0.000000 0.000000
         }
        }
       }
      }
     }
    }
   }
  }
 }
 JOINT RightHip
 {
  OFFSET -7.826875 0.019532 0.001973
  CHANNELS 3 Yrotation Xrotation Zrotation
  JOINT RightKnee
  {
   OFFSET 0.000000 -40.546152 -0.001885
   CHANNELS 3 Yrotation Xrotation Zrotation
   JOINT RightAnkle
   {
    OFFSET 0.000000 -39.417092 -0.003189
    CHANNELS 3 Yrotation Xrotation Zrotation
    JOINT RightToe
    {
     OFFSET 0.000000 -7.579396 17.243563
     CHANNELS 3 Yrotation Xrotation Zrotation
     End Site
     {
      OFFSET 0.000000 -1.500329 6.694466
     }
    }
   }
  }
 }
 JOINT LeftHip
 {
  OFFSET 7.826875 0.019532 0.001973
  CHANNELS 3 Yrotation Xrotation Zrotation
  JOINT LeftKnee
  {
   OFFSET 0.000000 -40.546152 -0.001885
   CHANNELS 3 Yrotation Xrotation Zrotation
   JOINT LeftAnkle
   {
    OFFSET 0.000000 -39.417092 -0.003189
    CHANNELS 3 Yrotation Xrotation Zrotation
    JOINT LeftToe
    {
     OFFSET 0.000000 -7.579396 17.243563
     CHANNELS 3 Yrotation Xrotation Zrotation
     End Site
     {
      OFFSET 0.000000 -1.500329 6.694466
     }
    }
   }
  }
 }
}
MOTION
Frames: 5
Frame Time: 0.008333
-5.999329 31.945263 -5.981315 164.422016 -28.241556 17.214648 12.644992 26.392190 8.780435 2.075819 5.167557 1.141032 3.299824 8.058976 1.871740 9.766544 21.287260 6.286666 31.564625 17.158883 -3.350626 58.835329 3.104035 -14.453146 -1.532456 -7.317407 -9.990960 -20.292230 -7.821747 72.653893 68.496753 -12.488670 12.837372 -26.430711 -15.618182 2.367040 -14.182943 -13.694601 6.722284 -14.621981 -41.556172 -97.766093 -46.572766 12.880210 -19.100213 17.173492 20.316930 -11.430308 -5.816795 -60.780703 -21.531501 -172.628170 25.102538 175.033342 -1.022471 -59.510381 -2.957365 0.925853 -12.447490 -3.641366 26.524625 -68.185340 -26.105830 165.344034 38.624454 175.400894 -15.115936 -33.834846 -8.847405 -0.710780 -9.016405 2.068325
-6.030858 31.957819 -5.991314 164.456941 -28.297601 17.329040 12.530385 26.413697 8.696365 2.072326 5.167404 1.133501 3.294167 8.059173 1.859867 9.750283 21.295921 6.254450 31.561824 17.165579 -3.345766 58.827274 3.112178 -14.441617 -1.515471 -7.329819 -10.026878 -20.180043 -7.813964 72.488057 68.122345 -12.434791 13.021380 -27.604454 -15.574400 2.337490 -14.180198 -13.665731 6.687740 -14.618637 -41.537402 -97.725303 -46.674965 12.961236 -19.057575 17.230640 20.515756 -11.703821 -5.750320 -60.760145 -21.639628 -172.503099 25.078028 175.033465 -1.170772 -59.493340 -2.831163 0.935628 -12.498190 -3.574012 26.765677 -68.082530 -26.456631 165.320084 38.644665 175.348445 -15.159027 -33.764692 -8.695709 -0.690146 -9.058542 1.964089
-6.059012 31.968137 -5.998763 164.475703 -28.343643 17.425501 12.440928 26.428782 8.634544 2.068968 5.166976 1.127408 3.288772 8.058908 1.850246 9.735309 21.302838 6.228369 31.555995 17.173781 -3.342153 58.813666 3.122456 -14.431163 -1.486912 -7.339037 -10.062634 -20.090101 -7.810521 72.333725 67.830187 -12.330147 13.168858 -28.701537 -15.471712 2.267417 -14.175096 -13.636045 6.654985 -14.617051 -41.520462 -97.689570 -46.777213 13.060343 -19.010190 17.221539 20.625900 -11.989705 -5.680294 -60.732316 -21.729281 -172.390209 25.055287 175.037588 -1.252735 -59.475823 -2.735255 0.926500 -12.550432 -3.530130 26.973027 -67.998325 -26.760087 165.319648 38.664343 175.320054 -15.228450 -33.709695 -8.517790 -0.665679 -9.092950 1.855899
-6.082708 31.976223 -6.005341 164.492178 -28.391657 17.501525 12.366195 26.445184 8.593328 2.066102 5.166665 1.123592 3.284209 8.058714 1.844197 9.722991 21.307859 6.211831 31.546405 17.183904 -3.339484 58.792997 3.135177 -14.420994 -1.458224 -7.347993 -10.097515 -20.011390 -7.800268 72.180811 67.633998 -12.170769 13.288816 -29.672641 -15.306003 2.173239 -14.171632 -13.606235 6.625935 -14.623767 -41.511078 -97.654293 -46.868200 13.174509 -18.953785 17.143676 20.639631 -12.280317 -5.636426 -60.697779 -21.790763 -172.289457 25.032794 175.041766 -1.317780 -59.459540 -2.649782 0.914458 -12.601570 -3.497258 27.130563 -67.924263 -27.006608 165.325567 38.678713 175.303303 -15.309748 -33.664389 -8.333541 -0.645267 -9.124129 1.747850
-6.102971 31.983470 -6.013980 164.521554 -28.461039 17.568114 12.283681 26.478589 8.559012 2.063843 5.166644 1.121908 3.280649 8.058843 1.841496 9.713586 21.311328 6.204189 31.532944 17.195979 -3.336022 58.764617 3.149503 -14.408131 -1.439106 -7.357883 -10.127698 -19.924815 -7.770473 72.022230 67.524767 -11.977770 13.378599 -30.464037 -15.107033 2.053878 -14.173225 -13.578715 6.606648 -14.637155 -41.511374 -97.625704 -46.935718 13.299858 -18.885808 16.999145 20.570266 -12.563328 -5.612558 -60.651066 -21.857364 -172.205892 25.010150 175.042576 -1.412080 -59.438500 -2.559591 0.919363 -12.654086 -3.461141 27.219694 -67.843129 -27.191782 165.320533 38.682792 175.276698 -15.399388 -33.618172 -8.171893 -0.622821 -9.161714 1.655405
